<svg id="LT_Logo_-_Gradient" data-name="LT Logo - Gradient" xmlns="http://www.w3.org/2000/svg" xmlns:xlink="http://www.w3.org/1999/xlink" viewBox="0 0 415.48 125.3"><defs><style>.cls-1{fill:#101f30;}.cls-2{fill:url(#linear-gradient);}</style><linearGradient id="linear-gradient" x1="254.7" y1="156" x2="312.66" y2="98.04" gradientUnits="userSpaceOnUse"><stop offset="0.05" stop-color="#078181"/><stop offset="0.21" stop-color="#07997d"/><stop offset="0.41" stop-color="#08af7a"/><stop offset="0.6" stop-color="#08bc78"/><stop offset="0.77" stop-color="#08c177"/></linearGradient></defs><title>lendingtree_logo_new</title><g id="LendingTree_Logo" data-name="LendingTree Logo"><g id="LendingTree"><g id="Registered_Trademark" data-name="Registered Trademark"><path class="cls-1" d="M513.27,162.53a2.81,2.81,0,0,0-1.15-1.14,3.09,3.09,0,0,0-3,0,2.81,2.81,0,0,0-1.15,1.14,3.06,3.06,0,0,0,0,3.08,3,3,0,0,0,1.14,1.14,3.1,3.1,0,0,0,3.08,0,3,3,0,0,0,1.14-1.14,3.13,3.13,0,0,0,0-3.08Zm-.52,2.78a2.3,2.3,0,0,1-.91.92,2.48,2.48,0,0,1-2.47,0,2.33,2.33,0,0,1-.92-.92,2.53,2.53,0,0,1,0-2.48,2.3,2.3,0,0,1,.92-.91,2.45,2.45,0,0,1,1.22-.32,2.48,2.48,0,0,1,1.23.32,2.3,2.3,0,0,1,.92.91,2.54,2.54,0,0,1,.33,1.25A2.47,2.47,0,0,1,512.75,165.31Z" transform="translate(-98.21 -97.07)"/></g><path class="cls-1" d="M508.58,183.74c0-7.67-1.77-13.64-5.26-17.74s-8.75-6.23-15.56-6.23-12.23,2.15-16,6.4-5.61,10.44-5.61,18.48a25.84,25.84,0,0,0,3,13.09,19.2,19.2,0,0,0,8.23,7.83,25.73,25.73,0,0,0,11.42,2.51,31.09,31.09,0,0,0,8.82-1.14,24,24,0,0,0,7.21-3.52,2.28,2.28,0,0,0,1-1.82,3.45,3.45,0,0,0-.31-1.36l-1.86-3.87c-.45-1.17-1.2-1.34-1.61-1.34a2.35,2.35,0,0,0-1.31.5,19,19,0,0,1-10.71,3.16c-4.06,0-7.26-1-9.51-3.05a10.84,10.84,0,0,1-3.33-7.9h28C506.5,187.74,508.58,187.22,508.58,183.74Zm-31.31-4.37a11.61,11.61,0,0,1,2.73-7.46c1.79-2,4.43-3,7.84-3s5.87,1,7.51,2.92a12.11,12.11,0,0,1,2.5,7.57Z" transform="translate(-98.21 -97.07)"/><path class="cls-1" d="M441.52,159.77c-6.86,0-12.24,2.15-16,6.4s-5.62,10.45-5.62,18.48a26,26,0,0,0,3,13.09,19.31,19.31,0,0,0,8.23,7.83,25.8,25.8,0,0,0,11.42,2.51,31.11,31.11,0,0,0,8.83-1.14,24,24,0,0,0,7.21-3.52,2.29,2.29,0,0,0,1-1.82,3.45,3.45,0,0,0-.31-1.36l-1.86-3.87c-.44-1.17-1.2-1.34-1.61-1.34a2.38,2.38,0,0,0-1.31.5,19,19,0,0,1-10.7,3.16c-4.07,0-7.27-1-9.51-3.05a10.8,10.8,0,0,1-3.33-7.9h28c1.24,0,3.31-.52,3.31-4,0-7.67-1.76-13.64-5.25-17.74S448.32,159.77,441.52,159.77Zm10.09,19.6H431a11.61,11.61,0,0,1,2.72-7.46c1.8-2,4.44-3,7.84-3s5.88,1,7.52,2.92A12.18,12.18,0,0,1,451.61,179.37Z" transform="translate(-98.21 -97.07)"/><path class="cls-1" d="M421.56,164.32a2.49,2.49,0,0,0,0-1.4,2.38,2.38,0,0,0-.87-1.19c-1.68-1.28-6.89-1.54-8.19-1.54-1,0-4.61.1-11.73,2.22a1.92,1.92,0,0,0-1.73-1h-5.22a2.6,2.6,0,0,0-2.3.89,4.07,4.07,0,0,0-.55,2.39v37.85a4.5,4.5,0,0,0,.91,3,.57.57,0,0,0,.11.11,3.69,3.69,0,0,0,2.77,1h4.08a3.59,3.59,0,0,0,2.94-1.12,4.68,4.68,0,0,0,.84-3v-31a33,33,0,0,1,8.76-1.51c.4,0,.77,0,1.16,0a8.24,8.24,0,0,1,3.39.91l.76.23.17,0a1.6,1.6,0,0,0,1.59-1.38l3-5.49Z" transform="translate(-98.21 -97.07)"/><path class="cls-1" d="M385.91,162.24a3.18,3.18,0,0,0-2.73-1h-8V149.61a4.6,4.6,0,0,0-.75-2.82,3.11,3.11,0,0,0-2.64-1.1h-4.87a3.11,3.11,0,0,0-2.64,1.1,4.53,4.53,0,0,0-.75,2.82v41.54c0,13.54,8.37,16.36,12.74,16.91a2.31,2.31,0,0,0,2.6-2.29v-6.18a2.31,2.31,0,0,0-1.24-2,4.16,4.16,0,0,1-1.33-1.12c-.84-1-1.12-3-1.12-5.65V171.44h8a3.26,3.26,0,0,0,2.71-.95,4.63,4.63,0,0,0,.68-2.88v-2.47A4.87,4.87,0,0,0,385.91,162.24Z" transform="translate(-98.21 -97.07)"/><path class="cls-1" d="M349.33,161.55a32.23,32.23,0,0,0-10.27-1.69c-7.57,0-13.46,2.16-17.49,6.43s-6.07,10.4-6.07,18.27c0,6.95,1.72,12.43,5.1,16.28s8.23,5.86,14.3,5.86a18.06,18.06,0,0,0,7.44-1.4,14.08,14.08,0,0,0,3.94-2.67c-.21,3.32-.94,5.75-2.18,7.24-1.46,1.76-3.84,2.65-7.08,2.65a26.88,26.88,0,0,1-8.55-1.39,1.59,1.59,0,0,0-2.13,1.45l-.2,6.69a1.59,1.59,0,0,0,1.19,1.59,46.18,46.18,0,0,0,10.56,1.5c6.83,0,11.93-2.23,15.17-6.64s4.78-10.35,4.78-17.88V165.33A80.12,80.12,0,0,0,349.33,161.55Zm-3,9.76v15.82a9.3,9.3,0,0,1-2.51,6.89,9,9,0,0,1-6.58,2.47c-3.45,0-6-1-7.7-3.05s-2.57-5.31-2.57-9.61c0-9.38,3.8-13.94,11.6-13.94a23.1,23.1,0,0,1,4.63.44A13.94,13.94,0,0,1,346.35,171.31Z" transform="translate(-98.21 -97.07)"/><path class="cls-1" d="M296.09,159.86a42.57,42.57,0,0,0-12.64,1.82l-2.13.55a1.9,1.9,0,0,0-1.75-1h-5.22a2.62,2.62,0,0,0-2.3.88,4.08,4.08,0,0,0-.54,2.39v38.19a4.55,4.55,0,0,0,.89,3,3.62,3.62,0,0,0,2.89,1.1h4.08a3.59,3.59,0,0,0,2.94-1.12,4.64,4.64,0,0,0,.85-3V171.42a39.48,39.48,0,0,1,9.56-1.54c2.37,0,4.09.55,5.1,1.63s1.55,3.05,1.55,5.81v25.37a4.5,4.5,0,0,0,.9,3,3.62,3.62,0,0,0,2.89,1.1h4.16a3.51,3.51,0,0,0,2.86-1.12,4.68,4.68,0,0,0,.84-3v-26.1c0-5.5-1.38-9.71-4.11-12.51A14.52,14.52,0,0,0,296.09,159.86Z" transform="translate(-98.21 -97.07)"/><path class="cls-1" d="M262.07,161.23H258a3.62,3.62,0,0,0-2.88,1.1,4.65,4.65,0,0,0-.9,3.09v37.27a4.5,4.5,0,0,0,.9,3,3.62,3.62,0,0,0,2.88,1.1h4.09a3.62,3.62,0,0,0,2.94-1.12,4.66,4.66,0,0,0,.84-3V165.42a4.65,4.65,0,0,0-.9-3.09A3.62,3.62,0,0,0,262.07,161.23Z" transform="translate(-98.21 -97.07)"/><path class="cls-1" d="M247.51,142.09c-3.38,1.51-10.45,7.35-10.45,8.85v12c-2.62-2.13-6.36-3.21-11.13-3.21a18.27,18.27,0,0,0-10.54,3.07,19.39,19.39,0,0,0-6.84,8.54,31.31,31.31,0,0,0-2.34,12.45c0,16.09,7.77,24.25,23.1,24.25A33.49,33.49,0,0,0,240,206.34a76.73,76.73,0,0,0,8.55-3.85v-59.3a1.13,1.13,0,0,0-.24-.74C248.11,142.22,247.8,142,247.51,142.09Zm-10.45,36v18.26a13.7,13.7,0,0,1-7.52,1.82c-4,0-7-1.08-8.9-3.22s-2.94-5.79-2.94-10.82c0-4.51.91-8.08,2.69-10.62s4.37-3.68,7.9-3.68a9.5,9.5,0,0,1,6.38,2.09C236.26,173.25,237.06,175.33,237.06,178.06Z" transform="translate(-98.21 -97.07)"/><path class="cls-1" d="M186.84,159.86a42.62,42.62,0,0,0-12.64,1.82l-.25.07-1.88.48a1.89,1.89,0,0,0-1.75-1H165.1a2.63,2.63,0,0,0-2.3.88,4.08,4.08,0,0,0-.54,2.39v38.19a4.5,4.5,0,0,0,.9,3,3.59,3.59,0,0,0,2.88,1.1h4.08a3.59,3.59,0,0,0,2.94-1.12,4.66,4.66,0,0,0,.85-3V171.42a39.48,39.48,0,0,1,9.56-1.54c2.37,0,4.09.55,5.11,1.63s1.54,3.05,1.54,5.81v25.37a4.55,4.55,0,0,0,.9,3,3.62,3.62,0,0,0,2.89,1.1h4.16a3.49,3.49,0,0,0,2.86-1.12,4.66,4.66,0,0,0,.84-3v-26.1c0-5.5-1.38-9.71-4.11-12.51A14.49,14.49,0,0,0,186.84,159.86Z" transform="translate(-98.21 -97.07)"/><path class="cls-1" d="M137,159.77c-6.85,0-12.23,2.15-16,6.4s-5.62,10.44-5.62,18.48a26,26,0,0,0,3,13.09,19.2,19.2,0,0,0,8.23,7.83,25.76,25.76,0,0,0,11.42,2.51,31,31,0,0,0,8.82-1.14,24.07,24.07,0,0,0,7.22-3.52,2.29,2.29,0,0,0,1-1.82,3.45,3.45,0,0,0-.31-1.36L153,196.37c-.44-1.17-1.2-1.34-1.61-1.34a2.38,2.38,0,0,0-1.31.5,19,19,0,0,1-10.7,3.16c-4.07,0-7.27-1-9.51-3.05a10.8,10.8,0,0,1-3.33-7.9h28c1.24,0,3.31-.52,3.31-4,0-7.67-1.77-13.64-5.25-17.74S143.78,159.77,137,159.77Zm10.1,19.6H126.49a11.61,11.61,0,0,1,2.72-7.46c1.8-2,4.43-3,7.84-3s5.88,1,7.51,2.92A12.12,12.12,0,0,1,147.07,179.37Z" transform="translate(-98.21 -97.07)"/><path class="cls-1" d="M111,196.43c-.84-1-1.12-3-1.12-5.65V147.26a4.6,4.6,0,0,0-.75-2.82,3.13,3.13,0,0,0-2.64-1.09H101.6A3.13,3.13,0,0,0,99,144.44a4.53,4.53,0,0,0-.75,2.82v43.89c0,13.54,8.37,16.36,12.74,16.91a2.3,2.3,0,0,0,2.59-2.29v-6.18a2.3,2.3,0,0,0-1.23-2A4.16,4.16,0,0,1,111,196.43Z" transform="translate(-98.21 -97.07)"/></g><g id="Leaf"><path class="cls-2" d="M311.56,97.07c-3,.45-22.62,2.55-37.1,6.16-20.62,5.14-20.24,22.35-20.24,29.15v8.12s0,14.51,0,14.86.26.36.43.13a209.75,209.75,0,0,1,29.14-31.44s.08-.07-.06,0A94.23,94.23,0,0,0,266,131.62c0-1.65,0-2.73,0-2.92-.08-11.71,6.82-14.88,15.05-17.17,6.71-1.86,19.21-2.93,19.21-2.93s-1,7.31-2.35,22.17c-1,10.87-8.95,13.29-20.07,13.29h-6.28c-5.05,7.21-5.68,11.55-5.68,11.55h12.29c23.38,0,28.6-10.3,29.71-25.54,1.41-19.37,3.36-30.61,3.94-32.72A.22.22,0,0,0,311.56,97.07Z" transform="translate(-98.21 -97.07)"/></g></g><path class="cls-1" d="M511.62,165.27h-.41a.19.19,0,0,1-.17-.09l-.5-.77a.13.13,0,0,0-.07-.06l-.1,0h-.19v.94h-.45v-2.41h.74a1.34,1.34,0,0,1,.42,0,.78.78,0,0,1,.29.14.57.57,0,0,1,.16.22.67.67,0,0,1,.06.28.59.59,0,0,1,0,.23.63.63,0,0,1-.1.2.87.87,0,0,1-.17.16.8.8,0,0,1-.23.1l.08.06a.27.27,0,0,1,.07.08ZM510.46,164a.73.73,0,0,0,.22,0,.61.61,0,0,0,.16-.09.38.38,0,0,0,.09-.13.51.51,0,0,0,0-.17.36.36,0,0,0-.12-.29.63.63,0,0,0-.37-.09h-.29v.8Z" transform="translate(-98.21 -97.07)"/></svg>